<?xml version="1.0" encoding="utf-8"?>
<!-- Generator: Adobe Illustrator 16.0.0, SVG Export Plug-In . SVG Version: 6.00 Build 0)  -->
<!DOCTYPE svg PUBLIC "-//W3C//DTD SVG 1.1//EN" "http://www.w3.org/Graphics/SVG/1.1/DTD/svg11.dtd">
<svg version="1.1" id="Layer_1" xmlns="http://www.w3.org/2000/svg" xmlns:xlink="http://www.w3.org/1999/xlink" x="0px" y="0px"
	 width="44.959px" height="50.667px" viewBox="262.834 79.5 44.959 50.667" enable-background="new 262.834 79.5 44.959 50.667"
	 xml:space="preserve">
<g id="New_Symbol_167">
</g>
<g id="New_Symbol">
</g>
<g id="New_Symbol_27">
</g>
<g id="New_Symbol_96">
	<g>
		<path d="M302.563,102.523l-5.789,2.531v-5.776c0-1.073-0.87-1.942-1.942-1.942h-6.768v-2.813c0-0.865-0.391-1.427-1.285-1.427
			h-14.584c-0.919,0-1.286,0.491-1.286,1.285v2.955h-1.649c-1.072,0-1.942,0.869-1.942,1.942v15.378c0,1.072,0.87,1.942,1.942,1.942
			h25.572c1.072,0,1.942-0.87,1.942-1.942v-4.244l5.789,2.793c0.438,0,0.792-0.354,0.792-0.791v-9.1
			C303.355,102.878,303.001,102.523,302.563,102.523z M272.438,95.176c0-0.392,0.318-0.71,0.71-0.71h12.677
			c0.393,0,0.71,0.318,0.71,0.71v1.391c0,0.392-0.317,0.709-0.71,0.709h-12.677c-0.392,0-0.71-0.317-0.71-0.709V95.176z
			 M287.698,110.208c0,0.11-0.089,0.199-0.2,0.199h-16.117c-0.109,0-0.199-0.089-0.199-0.199v-9.735c0-0.11,0.09-0.2,0.199-0.2
			h16.117c0.111,0,0.2,0.09,0.2,0.2V110.208z M291.874,102.994c-0.752,0-1.36-0.61-1.36-1.359c0-0.752,0.608-1.362,1.36-1.362
			c0.751,0,1.36,0.61,1.36,1.362C293.234,102.384,292.625,102.994,291.874,102.994z"/>
		<circle opacity="0.8" cx="291.874" cy="101.61" r="0.768"/>
		<path opacity="0.4" d="M271.381,110.407c-0.199-0.199-0.199-0.089-0.199-0.199v-9.735c0-0.11,0.09-0.2,0.199-0.2h16.117
			c0.111,0,0.2,0.09,0.2,0.2C287.698,100.473,279.463,103.722,271.381,110.407z"/>
	</g>
</g>
<g id="New_Symbol_43">
</g>
</svg>
