<?xml version="1.0" encoding="utf-8"?>
<!-- Generator: Adobe Illustrator 16.0.0, SVG Export Plug-In . SVG Version: 6.00 Build 0)  -->
<!DOCTYPE svg PUBLIC "-//W3C//DTD SVG 1.1//EN" "http://www.w3.org/Graphics/SVG/1.1/DTD/svg11.dtd">
<svg version="1.1" id="Layer_1" xmlns="http://www.w3.org/2000/svg" xmlns:xlink="http://www.w3.org/1999/xlink" x="0px" y="0px"
	 width="44.959px" height="50.667px" viewBox="1.416 83.875 44.959 50.667" enable-background="new 1.416 83.875 44.959 50.667"
	 xml:space="preserve">
<g id="New_Symbol_167">
	<g>
		<path d="M29.377,106.954c-0.28,0-0.558-0.118-0.756-0.349c-0.357-0.416-0.313-1.046,0.104-1.405l3.357-2.899l-3.316-2.576
			c-0.435-0.34-0.515-0.968-0.175-1.401c0.337-0.436,0.964-0.516,1.399-0.176l4.279,3.323c0.232,0.185,0.375,0.465,0.383,0.764
			s-0.118,0.585-0.345,0.781l-4.277,3.695C29.841,106.873,29.609,106.954,29.377,106.954z"/>
	</g>
	<g>
		<path d="M17.375,106.954c-0.23,0-0.464-0.081-0.652-0.243l-4.278-3.695c-0.225-0.196-0.352-0.482-0.345-0.781
			c0.008-0.299,0.15-0.579,0.385-0.764l4.278-3.323c0.434-0.34,1.061-0.26,1.401,0.176c0.337,0.434,0.258,1.062-0.176,1.401
			l-3.316,2.576l3.357,2.899c0.417,0.359,0.463,0.989,0.102,1.405C17.934,106.836,17.655,106.954,17.375,106.954z"/>
	</g>
	<g>
		<path d="M38.176,92.482H8.689c-1.167,0-2.116,0.949-2.116,2.118v15.897c0,1.168,0.949,2.118,2.116,2.118h11.03v3.191h-4.146
			c-0.438,0-0.792,0.355-0.792,0.792v0.846h17.303V116.6c0-0.437-0.354-0.792-0.791-0.792h-4.147v-3.191h11.03
			c1.169,0,2.117-0.95,2.117-2.118V94.601C40.293,93.432,39.345,92.482,38.176,92.482z M38.182,108.907
			c0,1.031-0.84,1.868-1.87,1.868H10.55c-1.031,0-1.866-0.837-1.866-1.868V96.19c0-1.03,0.835-1.868,1.866-1.868h25.762
			c1.03,0,1.87,0.838,1.87,1.868V108.907z"/>
		<path opacity="0.2" d="M8.684,108.907c0-1.192,0-12.717,0-12.717c0-1.03,0.835-1.868,1.866-1.868h25.762
			c1.03,0,1.87,0.838,1.87,1.868C38.182,96.19,18.547,99.044,8.684,108.907z"/>
	</g>
	<path d="M35.532,119.081H10.892l-0.072,0.185l-1.751,4.414v0.285c0,0.438,0.354,0.792,0.791,0.792h27.144
		c0.438,0,0.793-0.354,0.793-0.792v-0.285L35.532,119.081z M15.422,123.111l0.152-0.695h4.813l-0.032,0.695H15.422z M26.299,121.84
		l-0.087-0.696h4.591l0.206,0.696H26.299z M31.181,122.416l0.207,0.695H26.46l-0.087-0.695H31.181z M36.888,123.111h-4.9
		l-0.206-0.695h4.779L36.888,123.111z M36.29,121.84h-4.681l-0.207-0.696h4.561L36.29,121.84z M35.368,119.874l0.325,0.693h-4.462
		l-0.206-0.693H35.368z M30.632,120.567h-4.491l-0.087-0.693h4.37L30.632,120.567z M21.085,119.874h4.389l0.087,0.693h-4.508
		L21.085,119.874z M21.024,121.144h4.607l0.088,0.696h-4.727L21.024,121.144z M20.965,122.416h4.826l0.087,0.695h-4.945
		L20.965,122.416z M16.13,119.874h4.377l-0.033,0.693h-4.497L16.13,119.874z M20.449,121.144l-0.033,0.696H15.7l0.152-0.696H20.449z
		 M11.184,119.874h4.356l-0.152,0.693h-4.476L11.184,119.874z M10.688,121.144h4.574l-0.152,0.696h-4.695L10.688,121.144z
		 M10.19,122.416h4.793l-0.152,0.695H9.918L10.19,122.416z"/>
	
		<line opacity="0.7" fill="none" stroke="#000000" stroke-width="1.8149" stroke-linecap="round" stroke-miterlimit="10" x1="20.542" y1="108.109" x2="26.771" y2="97.139"/>
</g>
<g id="New_Symbol">
</g>
<g id="New_Symbol_27">
</g>
<g id="New_Symbol_96">
</g>
<g id="New_Symbol_43">
</g>
</svg>
