<?xml version="1.0" encoding="utf-8"?>
<!-- Generator: Adobe Illustrator 16.0.0, SVG Export Plug-In . SVG Version: 6.00 Build 0)  -->
<!DOCTYPE svg PUBLIC "-//W3C//DTD SVG 1.1//EN" "http://www.w3.org/Graphics/SVG/1.1/DTD/svg11.dtd">
<svg version="1.1" id="Layer_1" xmlns="http://www.w3.org/2000/svg" xmlns:xlink="http://www.w3.org/1999/xlink" x="0px" y="0px"
	 width="50px" height="50px" viewBox="0 0 50 50" enable-background="new 0 0 50 50" xml:space="preserve">
<path d="M37.079,27.122c0.033-0.565,0.004-0.856-0.027-1.417l-1.113,0.039L25.525,29.82c-0.647,0.228-1.003,0.28-2.075-0.034
	l-10.962-4.133L11.283,25.7c-0.044,1.489,0.029,2.811-0.072,4.388c-0.024,0.384,0.015,2.994-0.044,3.375
	c-0.183,1.188,0.752,0.848,0.414,0.827c6.12,0.354,10.075,4.075,13.135,4.412c2.546,0.279,4.074-4.368,10.024-4.368
	c1.295,0,2.348,0.332,2.343-0.88C37.075,32.075,36.997,28.477,37.079,27.122z M34.012,33.291c-4.881,0.438-6.62,2.065-9.791,4.34
	c4.605-9.765,11.771-10.696,11.771-10.696c-0.013,1.242,0.081,4.243,0.088,5.507C36.084,33.612,35.259,33.18,34.012,33.291z"/>
<path d="M40.713,24.749c-0.13-0.055-0.272-0.084-0.421-0.084c-0.12,0-0.235,0.019-0.343,0.055c-0.438,0.145-0.756,0.556-0.756,1.042
	c0,0.605,0.492,1.098,1.099,1.098s1.098-0.492,1.098-1.098C41.39,25.305,41.11,24.914,40.713,24.749z"/>
<path d="M40.411,34.196c-0.021-2.701-0.129-3.678-0.184-4.195h-0.966c-0.119,0.509-0.376,1.549-0.339,4.214
	c0.051,3.663-0.595,4.167-0.406,4.338l1.428,0.104C39.854,38.626,40.439,37.875,40.411,34.196z"/>
<path d="M41.856,34.117c-0.036-2.702-0.241-3.639-0.34-4.116h-0.173c0.054,0.5,0.159,1.477,0.06,3.771
	c-0.157,3.605,0.184,4.728,0.285,4.892c0.351-0.021,0.613-0.058,0.679-0.111C42.595,38.362,41.91,38.054,41.856,34.117z"/>
<path d="M39.209,28.354c0,0.006,0.001,0.011,0.001,0.014c0.007,0.076,0.07,0.54,0.147,0.54h1.867c0.078,0,0.141-0.464,0.147-0.54
	c0-0.003,0.002-0.008,0.002-0.014c0-0.081-0.067-0.519-0.149-0.519h-1.867C39.275,27.835,39.209,28.272,39.209,28.354z"/>
<path d="M46.716,18.979l-21.271-7.186c-0.517-0.116-0.952-0.127-1.562,0.025L2.664,19.317c-0.124,0.123-0.167,0.295-0.131,0.452
	c0.019,0.082,0.06,0.159,0.124,0.222l20.799,7.677c1.07,0.312,1.428,0.261,2.075,0.034l12.641-4.731
	c-1.033-0.268-4.866-2.668-11.591-2.714c0.003,0.021,0.006,0.043,0.006,0.065c0,0.613-0.873,1.11-1.951,1.11
	c-1.077,0-1.951-0.497-1.951-1.11c0-0.612,0.874-1.11,1.951-1.11c0.134,0,0.264,0.008,0.389,0.022
	c6.703-0.345,14.739,2.079,16.393,2.289l5.291-1.87c0.068-0.07,0.112-0.155,0.133-0.243C46.874,19.259,46.832,19.097,46.716,18.979z
	"/>
<path opacity="0.5" d="M34.132,33.394c-4.993,0.446-6.771,2.112-10.014,4.438c4.71-9.987,11.97-10.975,11.97-10.975
	c0.125,1.271,0.153,4.375,0.158,5.668C36.251,33.722,35.408,33.279,34.132,33.394z"/>
</svg>
