<?xml version="1.0" encoding="utf-8"?>
<!-- Generator: Adobe Illustrator 16.0.0, SVG Export Plug-In . SVG Version: 6.00 Build 0)  -->
<!DOCTYPE svg PUBLIC "-//W3C//DTD SVG 1.1//EN" "http://www.w3.org/Graphics/SVG/1.1/DTD/svg11.dtd">
<svg version="1.1" id="Layer_1" xmlns="http://www.w3.org/2000/svg" xmlns:xlink="http://www.w3.org/1999/xlink" x="0px" y="0px"
	 width="44.959px" height="50.667px" viewBox="84.167 82.167 44.959 50.667" enable-background="new 84.167 82.167 44.959 50.667"
	 xml:space="preserve">
<g id="New_Symbol_167">
</g>
<g id="New_Symbol">
	<path opacity="0.7" d="M111.762,108.991l-4.506,4.508l2.277,2.275l1.937-1.936l0.727,0.726l-1.937,1.937l3.146,3.146l1.937-1.937
		l0.726,0.727l-1.937,1.936l3.211,3.211l4.507-4.506L111.762,108.991z M95.712,92.942l-4.506,4.506l2.84,2.839l1.936-1.936
		l0.726,0.726l-1.936,1.937l3.146,3.145l1.936-1.935l0.727,0.725l-1.937,1.937l2.526,2.526l4.506-4.505L95.712,92.942z"/>
	<path opacity="0.5" d="M97.122,115.564c-0.221,0.221-0.519,0.28-0.665,0.133l0,0c-0.148-0.146-0.088-0.445,0.133-0.665
		l16.361-16.361c0.221-0.221,0.519-0.281,0.666-0.133l0,0c0.147,0.146,0.087,0.444-0.133,0.665L97.122,115.564z"/>
	<path opacity="0.5" d="M99.708,118.15c-0.22,0.222-0.518,0.281-0.665,0.134l0,0c-0.147-0.146-0.087-0.445,0.133-0.666
		l16.361-16.361c0.221-0.221,0.52-0.28,0.666-0.133l0,0c0.147,0.147,0.088,0.445-0.133,0.665L99.708,118.15z"/>
	<g>
		<path opacity="0.5" d="M113.986,95.406l5.275,5.275c0.07,0.07,0.12,0.153,0.151,0.239l2.422-2.42c0.337-0.337,0.337-0.882,0-1.217
			l-4.451-4.451c-0.335-0.337-0.88-0.337-1.218,0l-2.42,2.421C113.833,95.286,113.916,95.337,113.986,95.406z"/>
		<path opacity="0.5" d="M96.345,118.323c-1.041-1.041-2.18-1.891-3.357-2.546l-0.398,1.953l-0.517,2.53
			c0.422,0.341,0.832,0.71,1.229,1.106c0.387,0.387,0.746,0.784,1.079,1.195l2.442-0.478l2.066-0.406
			C98.234,120.502,97.386,119.364,96.345,118.323z"/>
		<path d="M94.38,122.562c-0.333-0.411-0.692-0.809-1.079-1.195c-0.396-0.396-0.807-0.766-1.229-1.106l-0.585,2.87L94.38,122.562z"
			/>
		<path d="M119.262,101.634c0.262-0.264,0.262-0.689,0-0.952l-5.275-5.275c-0.263-0.263-0.689-0.263-0.95,0
			c-0.265,0.263-0.265,0.689,0,0.952l-0.406-0.406l-19.596,19.595l-0.047,0.23c1.178,0.655,2.316,1.505,3.357,2.546
			s1.89,2.179,2.544,3.355l0.232-0.045l19.595-19.595l-0.406-0.405C118.572,101.896,118.999,101.896,119.262,101.634z
			 M97.122,115.564c-0.221,0.221-0.519,0.28-0.665,0.133c-0.148-0.146-0.088-0.445,0.133-0.665l16.361-16.361
			c0.221-0.221,0.519-0.281,0.666-0.133c0.147,0.146,0.087,0.444-0.133,0.665L97.122,115.564z M99.708,118.15
			c-0.22,0.222-0.518,0.281-0.665,0.134c-0.147-0.146-0.087-0.445,0.133-0.666l16.361-16.361c0.221-0.221,0.52-0.28,0.666-0.133
			c0.147,0.147,0.088,0.445-0.133,0.665L99.708,118.15z"/>
	</g>
</g>
<g id="New_Symbol_27">
</g>
<g id="New_Symbol_96">
</g>
<g id="New_Symbol_43">
</g>
</svg>
