<?xml version="1.0" encoding="utf-8"?>
<!-- Generator: Adobe Illustrator 16.0.0, SVG Export Plug-In . SVG Version: 6.00 Build 0)  -->
<!DOCTYPE svg PUBLIC "-//W3C//DTD SVG 1.1//EN" "http://www.w3.org/Graphics/SVG/1.1/DTD/svg11.dtd">
<svg version="1.1" id="Layer_1" xmlns="http://www.w3.org/2000/svg" xmlns:xlink="http://www.w3.org/1999/xlink" x="0px" y="0px"
	 width="50px" height="50px" viewBox="163.5 -1.167 50 50" enable-background="new 163.5 -1.167 50 50" xml:space="preserve">
<path opacity="0.4" fill-rule="evenodd" clip-rule="evenodd" d="M188.375,5.674c0.015,0.002,0.031,0.002,0.046,0.002
	c0.139,0,0.276,0,0.416,0.005c0.077,0.002,0.154,0.004,0.232,0.009l0.056,0.001l0.049,0.002c0.054,0.001,0.106,0.004,0.158,0.007
	c0.11,0.006,0.219,0.013,0.328,0.02c0.054,0.004,0.108,0.009,0.162,0.013c0.117,0.009,0.237,0.021,0.354,0.031
	c0.041,0.004,0.081,0.009,0.122,0.013c0.127,0.014,0.255,0.027,0.382,0.042l0.022,0.002l0.047,0.006
	c2.408,0.312,4.702,1.081,6.813,2.282c2.062,1.175,3.859,2.708,5.341,4.558c0.027,0.033,0.054,0.071,0.081,0.112l0.016,0.021
	l0.005,0.01l0.007,0.004c2.601,3.312,3.976,7.297,3.976,11.519s-1.375,8.202-3.976,11.514l-0.005,0.009l-0.007,0.006l-0.011,0.017
	c-0.029,0.041-0.055,0.084-0.086,0.118c-1.482,1.851-3.28,3.388-5.346,4.562c-2.115,1.203-4.409,1.971-6.822,2.282h-0.025
	l-0.022,0.004c-0.132,0.018-0.265,0.031-0.397,0.044c-0.037,0.006-0.071,0.011-0.107,0.014c-0.122,0.012-0.244,0.022-0.366,0.031
	l-0.106,0.009l-0.042,0.004c-0.112,0.007-0.225,0.015-0.338,0.021c-0.043,0.003-0.087,0.003-0.131,0.005l-0.069,0.003l-0.053,0.004
	c-0.081,0.002-0.162,0.005-0.244,0.011c-0.137,0.001-0.271,0.002-0.409,0.002c-0.017,0-0.03,0-0.045,0c-0.014,0-0.028,0-0.041,0
	h-0.011c-0.013,0-0.024,0-0.038,0h-0.044c-0.14,0-0.277-0.001-0.414-0.002c-0.077-0.006-0.153-0.009-0.229-0.011l-0.06-0.004h-0.056
	c-0.051-0.005-0.103-0.005-0.152-0.008c-0.109-0.006-0.22-0.014-0.329-0.021c-0.053-0.004-0.107-0.007-0.161-0.013
	c-0.117-0.009-0.237-0.02-0.354-0.031c-0.04-0.003-0.081-0.008-0.122-0.014c-0.127-0.013-0.255-0.026-0.38-0.044l-0.037-0.004
	l-0.034-0.004c-2.408-0.311-4.702-1.079-6.813-2.28c-2.063-1.174-3.86-2.709-5.342-4.562c-0.026-0.032-0.053-0.067-0.08-0.108
	l-0.02-0.03l-0.006-0.009c-2.601-3.31-3.977-7.292-3.979-11.514c0.002-4.222,1.377-8.204,3.978-11.517l0.005-0.006l0.005-0.007
	l0.011-0.015c0.031-0.046,0.059-0.085,0.087-0.121c1.482-1.852,3.281-3.388,5.347-4.561c2.114-1.203,4.407-1.97,6.821-2.282
	l0.037-0.004h0.01c0.134-0.018,0.267-0.031,0.401-0.047c0.034-0.002,0.069-0.006,0.105-0.011c0.121-0.011,0.243-0.022,0.366-0.031
	l0.107-0.009l0.041-0.002c0.111-0.009,0.226-0.016,0.337-0.022c0.054-0.002,0.106-0.005,0.158-0.007l0.044-0.002l0.046-0.001
	c0.084-0.003,0.166-0.007,0.249-0.009c0.136-0.005,0.273-0.005,0.408-0.005c0.017,0,0.032,0,0.051-0.002c0.012,0,0.023,0,0.036,0
	h0.011H188.375z M188.203,10.353h-0.054h-0.046c-0.045,0-0.093,0-0.138,0.003c-0.093,0.001-0.185,0.005-0.277,0.011h-0.031
	l-0.057,0.004c-0.102,0.003-0.204,0.011-0.306,0.018l-0.051,0.004c-0.111,0.009-0.224,0.019-0.331,0.029h-0.01v0.002
	c-3.176,0.321-6.179,1.752-8.454,4.021c-2.64,2.645-4.093,6.158-4.097,9.891c0.004,3.732,1.457,7.243,4.097,9.888
	c2.218,2.213,5.02,3.592,8.102,3.984h0.007v0.001c0.104,0.013,0.21,0.024,0.312,0.037l0.073,0.006
	c0.092,0.009,0.185,0.016,0.275,0.024c0.042,0.003,0.078,0.005,0.117,0.009c0.082,0.008,0.164,0.011,0.244,0.016
	c0.058,0.003,0.117,0.004,0.175,0.006l0.046,0.004c0.052,0.002,0.101,0.003,0.15,0.003c0.127,0.005,0.251,0.007,0.377,0.007
	c0.046,0,0.088-0.002,0.133-0.002h0.058h0.044c0.046,0,0.093,0,0.14-0.001c0.093-0.004,0.185-0.007,0.277-0.013h0.034l0.055-0.004
	c0.103-0.005,0.205-0.012,0.304-0.02l0.018-0.002h0.034c0.112-0.012,0.222-0.019,0.332-0.033h0.007h0.002
	c3.177-0.32,6.178-1.751,8.453-4.022c2.639-2.645,4.096-6.157,4.096-9.888l0,0c0-3.733-1.457-7.246-4.096-9.891
	c-2.218-2.21-5.02-3.588-8.101-3.981l-0.004-0.001h-0.005c-0.104-0.013-0.209-0.024-0.312-0.036l-0.014-0.002l-0.058-0.004
	c-0.092-0.009-0.185-0.018-0.278-0.027c-0.038-0.001-0.077-0.004-0.116-0.006c-0.081-0.007-0.163-0.013-0.243-0.016
	c-0.059-0.004-0.118-0.004-0.173-0.009h-0.027c-0.057-0.001-0.114-0.004-0.171-0.005c-0.125-0.003-0.251-0.008-0.377-0.008
	C188.293,10.348,188.248,10.351,188.203,10.353z"/>
<g opacity="0.7">
	<path fill-rule="evenodd" clip-rule="evenodd" d="M188.481,13.938c1.545,0,2.794,1.251,2.794,2.796
		c0,1.544-1.249,2.797-2.794,2.797s-2.796-1.253-2.796-2.797C185.686,15.189,186.937,13.938,188.481,13.938z"/>
	<path fill-rule="evenodd" clip-rule="evenodd" d="M191.032,24.164v7.823c0,1.457-1.073,2.637-2.528,2.637s-2.581-1.18-2.581-2.637
		v-7.823c0-1.455,1.126-2.636,2.581-2.636S191.032,22.709,191.032,24.164z"/>
</g>
</svg>
