<?xml version="1.0" encoding="utf-8"?>
<!-- Generator: Adobe Illustrator 16.0.0, SVG Export Plug-In . SVG Version: 6.00 Build 0)  -->
<!DOCTYPE svg PUBLIC "-//W3C//DTD SVG 1.1//EN" "http://www.w3.org/Graphics/SVG/1.1/DTD/svg11.dtd">
<svg version="1.1" id="Layer_1" xmlns="http://www.w3.org/2000/svg" xmlns:xlink="http://www.w3.org/1999/xlink" x="0px" y="0px"
	 width="50px" height="50px" viewBox="240 -0.5 50 50" enable-background="new 240 -0.5 50 50" xml:space="preserve">
<g>
	<path d="M287.15,12.529c0,1.51-1.227,2.735-2.726,2.735c-1.513,0-2.734-1.225-2.734-2.735c0-1.51,1.222-2.736,2.734-2.736
		C285.924,9.793,287.15,11.019,287.15,12.529z"/>
	<g>
		<path d="M253.211,30.073v-14.59h4.255v10.758c3.03-2.495,6.267-4.733,9.569-6.668v-9.212h4.246v6.9
			c2.699-1.35,5.402-2.489,8.035-3.398c-3.486-5.085-9.343-8.431-15.974-8.431c-10.685,0-19.336,8.654-19.336,19.336
			c0,4.287,1.403,8.254,3.773,11.465C249.424,34.068,251.243,32.008,253.211,30.073z"/>
		<path opacity="0.7" d="M279.682,14.425c-2.794,1.146-5.635,2.703-8.4,4.604v20.131h-4.246V22.279
			c-5.86,4.942-11.05,11.404-14.278,18.663c3.042,1.992,6.677,3.145,10.586,3.145c10.678,0,19.341-8.646,19.341-19.318
			C282.684,20.963,281.58,17.417,279.682,14.425z"/>
	</g>
</g>
</svg>
