<?xml version="1.0" encoding="utf-8"?>
<!-- Generator: Adobe Illustrator 16.0.0, SVG Export Plug-In . SVG Version: 6.00 Build 0)  -->
<!DOCTYPE svg PUBLIC "-//W3C//DTD SVG 1.1//EN" "http://www.w3.org/Graphics/SVG/1.1/DTD/svg11.dtd">
<svg version="1.1" id="Layer_1" xmlns="http://www.w3.org/2000/svg" xmlns:xlink="http://www.w3.org/1999/xlink" x="0px" y="0px"
	 width="44.959px" height="50.667px" viewBox="339.5 80.167 44.959 50.667" enable-background="new 339.5 80.167 44.959 50.667"
	 xml:space="preserve">
<g id="New_Symbol_167">
</g>
<g id="New_Symbol">
</g>
<g id="New_Symbol_27">
</g>
<g id="New_Symbol_96">
</g>
<g id="New_Symbol_43">
	<path d="M371.578,118.465c-0.277-0.908-1.146-3.705-1.488-4.345c-0.412-0.767-0.652-1.642-2.23-2.006
		c-0.612-0.143-1.714-0.306-2.595-0.473c-0.97-0.222-2.066-0.468-2.729-0.622c-0.098-0.038-0.169-0.075-0.2-0.109
		c-0.31-0.329-0.858-1.424-0.858-2.481c0.635-0.675,1.27-0.729,1.612-2.371s0.525-4.11,0.366-5.06
		c0.399-0.425,0.698-1.24,0.698-2.092c0-0.851,0.169-5.579-5.043-6.648c-0.094-0.021-0.189-0.034-0.283-0.058
		c-0.192-0.048-0.491-0.075-0.785-0.075c-0.273,0-0.543,0.023-0.718,0.075c-0.092,0.028-0.189,0.036-0.283,0.058
		c-5.212,1.069-5.044,5.798-5.044,6.648c0,0.852,0.3,1.667,0.699,2.092c-0.16,0.949,0.023,3.418,0.366,5.06s0.978,1.696,1.612,2.371
		c0,1.058-0.549,2.152-0.858,2.481c-0.032,0.034-0.103,0.071-0.2,0.109c-0.663,0.154-1.761,0.4-2.729,0.622
		c-0.881,0.167-1.982,0.33-2.596,0.473c-1.577,0.364-1.817,1.239-2.229,2.006c-0.343,0.64-0.685,3.436-0.962,4.345
		c-0.057,0.151-0.088,0.24-0.088,0.24s0.004,0.005,0.01,0.014c-0.006,0.022-0.01,0.035-0.01,0.035
		c0.263,0.279,0.525,1.289,1.142,1.289c0.034,0,0.141,0,0.302,0.001c0.434,0.064,3.144,0.085,6.531,0.085
		c1.601,0,3.354-0.005,5.09-0.013c1.734,0.008,3.488,0.013,5.089,0.013c3.387,0,6.098-0.021,6.531-0.085
		c0.161-0.001,0.267-0.001,0.301-0.001c0.617,0,1.406-1.01,1.67-1.289c0,0-0.005-0.013-0.011-0.035
		c0.007-0.009,0.011-0.014,0.011-0.014S371.635,118.616,371.578,118.465z"/>
	<path opacity="0.7" d="M378.523,116.128c0,0-0.024-0.068-0.068-0.188c-0.219-0.714-0.9-2.911-1.171-3.413
		c-0.323-0.603-0.512-1.29-1.751-1.577c-0.481-0.11-1.348-0.239-2.04-0.37c-0.762-0.175-1.623-0.368-2.144-0.489
		c-0.077-0.029-0.133-0.059-0.157-0.087c-0.243-0.258-0.674-1.117-0.674-1.949c0.499-0.529,0.997-0.572,1.266-1.862
		c0.27-1.289,0.413-3.229,0.287-3.975c0.314-0.334,0.55-0.975,0.55-1.643s0.133-4.383-3.962-5.225
		c-0.073-0.017-0.148-0.024-0.223-0.044c-0.293-0.073-0.896-0.085-1.181,0c-0.072,0.021-0.149,0.027-0.224,0.044
		c-0.84,0.173-1.502,0.466-2.024,0.83c0.265,1.064,0.263,1.975,0.261,2.391v0.073c0,0.876-0.248,1.741-0.664,2.365
		c0.093,1.29-0.123,3.55-0.422,4.979c-0.048,0.232-0.104,0.439-0.166,0.628c0.284,0.884,0.722,0.975,1.157,1.438
		c0,0.832-0.431,1.691-0.674,1.949c-0.025,0.028-0.08,0.058-0.157,0.087c-0.067,0.017-0.14,0.032-0.218,0.051
		c0.11,0.024,0.223,0.051,0.336,0.076c0.405,0.093,0.829,0.188,1.232,0.28c0.339,0.063,0.716,0.128,1.081,0.19
		c0.586,0.1,1.14,0.194,1.531,0.285c1.768,0.408,2.278,1.43,2.65,2.175c0.048,0.094,0.091,0.183,0.137,0.266
		c0.298,0.555,0.862,2.271,1.35,3.834c2.377-0.004,4.219-0.021,4.533-0.067c0.127,0,0.209,0,0.236,0
		c0.485,0,1.105-0.794,1.312-1.014c0,0-0.004-0.011-0.008-0.026C378.521,116.132,378.523,116.128,378.523,116.128z"/>
</g>
</svg>
