<?xml version="1.0" encoding="utf-8"?>
<!-- Generator: Adobe Illustrator 16.0.0, SVG Export Plug-In . SVG Version: 6.00 Build 0)  -->
<!DOCTYPE svg PUBLIC "-//W3C//DTD SVG 1.1//EN" "http://www.w3.org/Graphics/SVG/1.1/DTD/svg11.dtd">
<svg version="1.1" id="Layer_1" xmlns="http://www.w3.org/2000/svg" xmlns:xlink="http://www.w3.org/1999/xlink" x="0px" y="0px"
	 width="30px" height="30px" viewBox="0 0 30 30" enable-background="new 0 0 30 30" xml:space="preserve">
<path fill="#FFFFFF" d="M2.135,5.44v15.545c0,1.422,1.151,2.574,2.571,2.574c0,0,7.721,0,9.436,0c1.717,0,3.833,2.197,5.146,4.555
	c1.312,2.361,0.763-4.555,3.431-4.555c1.716,0,2.573,0,2.573,0c1.42,0,2.573-1.152,2.573-2.574V5.44c0-1.42-1.153-2.573-2.573-2.573
	H4.706C3.286,2.867,2.135,4.02,2.135,5.44z"/>
<g id="New_Symbol_149">
	<rect x="6.449" y="7.708" width="11.988" height="1.09"/>
	<rect x="6.449" y="9.888" width="17.438" height="1.09"/>
	<rect x="6.449" y="12.067" width="13.078" height="1.09"/>
	<rect x="6.449" y="14.247" width="16.348" height="1.09"/>
	<rect x="6.449" y="16.427" width="11.988" height="1.09"/>
	<rect x="6.449" y="18.606" width="15.258" height="1.09"/>
</g>
</svg>
