<?xml version="1.0" encoding="utf-8"?>
<!-- Generator: Adobe Illustrator 16.0.0, SVG Export Plug-In . SVG Version: 6.00 Build 0)  -->
<!DOCTYPE svg PUBLIC "-//W3C//DTD SVG 1.1//EN" "http://www.w3.org/Graphics/SVG/1.1/DTD/svg11.dtd">
<svg version="1.1" id="Layer_1" xmlns="http://www.w3.org/2000/svg" xmlns:xlink="http://www.w3.org/1999/xlink" x="0px" y="0px"
	 width="29.999px" height="30px" viewBox="0 0 29.999 30" enable-background="new 0 0 29.999 30" xml:space="preserve">
<path id="LinkedIn__x28_alt_x29__3_" fill="#FFFFFF" d="M25.577,3.396H5.691c-0.952,0-1.725,0.748-1.725,1.672v19.988
	c0,0.924,0.772,1.673,1.725,1.673h19.886c0.952,0,1.723-0.749,1.723-1.673V5.067C27.3,4.144,26.529,3.396,25.577,3.396z
	 M11.041,22.927H7.516V12.392h3.525V22.927z M9.278,10.953H9.255c-1.182,0-1.948-0.809-1.948-1.821c0-1.032,0.788-1.818,1.994-1.818
	s1.947,0.786,1.971,1.818C11.271,10.145,10.507,10.953,9.278,10.953z M23.749,22.927h-3.524V17.29c0-1.416-0.511-2.383-1.785-2.383
	c-0.975,0-1.554,0.652-1.808,1.282c-0.094,0.225-0.117,0.539-0.117,0.854v5.884H12.99c0,0,0.047-9.547,0-10.535h3.524v1.494
	c0.468-0.718,1.304-1.741,3.176-1.741c2.319,0,4.059,1.505,4.059,4.742V22.927z M16.491,13.919c0.007-0.01,0.015-0.022,0.023-0.033
	v0.033H16.491z"/>
</svg>
