<?xml version="1.0" encoding="utf-8"?>
<!-- Generator: Adobe Illustrator 16.0.0, SVG Export Plug-In . SVG Version: 6.00 Build 0)  -->
<!DOCTYPE svg PUBLIC "-//W3C//DTD SVG 1.1//EN" "http://www.w3.org/Graphics/SVG/1.1/DTD/svg11.dtd">
<svg version="1.1" id="Layer_1" xmlns="http://www.w3.org/2000/svg" xmlns:xlink="http://www.w3.org/1999/xlink" x="0px" y="0px"
	 width="29.999px" height="30px" viewBox="0 0 29.999 30" enable-background="new 0 0 29.999 30" xml:space="preserve">
<path id="Twitter__x28_alt_x29__2_" fill="#FFFFFF" d="M25.441,14.032c1.518-0.126,2.542-0.815,2.942-1.748
	c-0.549,0.333-2.248,0.7-3.185,0.352c-0.047-0.219-0.098-0.43-0.148-0.62c-0.714-2.622-3.162-4.735-5.725-4.482
	c0.208-0.084,0.419-0.162,0.628-0.229c0.283-0.103,1.937-0.371,1.679-0.954c-0.223-0.516-2.246,0.386-2.624,0.506
	c0.501-0.188,1.334-0.516,1.423-1.094c-0.77,0.105-1.527,0.47-2.11,1c0.21-0.226,0.371-0.504,0.403-0.801
	c-2.055,1.313-3.254,3.958-4.226,6.523c-0.763-0.739-1.436-1.321-2.043-1.644c-1.702-0.913-3.735-1.864-6.929-3.05
	c-0.098,1.056,0.523,2.463,2.309,3.396c-0.386-0.053-1.094,0.062-1.662,0.2c0.232,1.208,0.986,2.205,3.026,2.689
	c-0.932,0.061-1.415,0.272-1.851,0.729c0.424,0.841,1.458,1.834,3.323,1.629c-2.073,0.893-0.845,2.548,0.842,2.299
	c-2.876,2.973-7.41,2.755-10.016,0.268c6.8,9.267,21.576,5.479,23.779-3.441c1.648,0.012,2.619-0.573,3.221-1.217
	C27.55,14.503,26.173,14.335,25.441,14.032z"/>
</svg>
