<?xml version="1.0" encoding="utf-8"?>
<!-- Generator: Adobe Illustrator 16.0.0, SVG Export Plug-In . SVG Version: 6.00 Build 0)  -->
<!DOCTYPE svg PUBLIC "-//W3C//DTD SVG 1.1//EN" "http://www.w3.org/Graphics/SVG/1.1/DTD/svg11.dtd">
<svg version="1.1" id="Layer_1" xmlns="http://www.w3.org/2000/svg" xmlns:xlink="http://www.w3.org/1999/xlink" x="0px" y="0px"
	 width="30px" height="30px" viewBox="0 0 30 30" enable-background="new 0 0 30 30" xml:space="preserve">
<path opacity="0.8" fill="#BCBEC0" d="M22.12,12.397l-0.079,0.08v11.49H6.091V8.019h9.178l1.252-1.251l-1.629-1.949H5.131
	C3.894,4.819,2.893,5.82,2.892,7.058v17.871c0,1.237,1.002,2.238,2.239,2.239h17.87c1.238-0.001,2.239-1.002,2.24-2.239v-9.514
	c-0.069-0.051-0.137-0.105-0.199-0.166L22.12,12.397z"/>
<path fill="#E6E7E8" d="M27.109,3.295c0-0.255-0.206-0.462-0.462-0.463h-8.815h-0.001c-0.189,0-0.357,0.113-0.43,0.289
	c-0.021,0.055-0.033,0.113-0.033,0.174c0,0.125,0.051,0.245,0.141,0.332l2.76,2.656l0.03,0.029l-6.019,6.01l2.975,2.979l6.066-6.057
	l0.168,0.164l2.836,2.751c0.088,0.086,0.204,0.131,0.322,0.131c0.061,0,0.121-0.012,0.18-0.037c0.172-0.072,0.282-0.239,0.282-0.426
	V3.295z"/>
</svg>
